{"title":"Spiderman.The.Animated.Series.Season.(1-5)-WaRlOrD","uid":5050535,"size":9320268026,"categoryP":"video","categoryS":"tv_shows","magnet":"?xt=urn:btih:c797adb36ed3cf8b0a938699c8162777f42e3687&amp;dn=Spiderman.The.Animated.Series.Season.%281-5%29-WaRlOrD&amp;tr=udp%3A%2F%2Ftracker.openbittorrent.com%3A80&amp;tr=udp%3A%2F%2Fopen.demonii.com%3A1337&amp;tr=udp%3A%2F%2Ftracker.coppersurfer.tk%3A6969&amp;tr=udp%3A%2F%2Fexodus.desync.com%3A6969","seeders":6,"leechers":2,"uploader":"bitpirate","files":65,"time":1250169170,"description":"WaRlOrD presents: Spiderman The animated series\n-----------------------------------------------\n(((((no subs))))) &lt;a href=&quot;\nhttp://en.wikipedia.org/wiki/Spider-Man_%281994_TV_series%29&quot; rel=&quot;nofollow&quot; target=&quot;_NEW&quot;&gt;\nhttp://en.wikipedia.org/wiki/Spider-Man_%281994_TV_series%29&lt;/a&gt;\n\nSpider-Man, also known as Spider-Man: The Animated Series, is an American animated series starring the famous Marvel Comics superhero, Spider-Man. The show ran on Fox Kids from November 19, 1994, to January 31, 1998. The producer/story editor was John Semper, Jr. and production company was Marvel Productions. Reruns can currently be seen on Jetix Europe and Disney XD.\n\nFormat : AVI\nFormat/Info : Audio Video Interleave\nFile size : 241 MiB\nDuration : 19mn 27s\nOverall bit rate : 1 730 Kbps\nWriting library : VirtualDub build 18160/release\n\nVideo\nID : 0\nFormat : MPEG-4 Visual\nFormat settings, BVOP : Yes\nFormat settings, QPel : No\nFormat settings, GMC : No warppoints\nFormat settings, Matrix : Default (H.263)\nMuxing mode : Packed bitstream\nCodec ID : DX50\nCodec ID/Hint : DivX 5\nDuration : 19mn 27s\nBit rate : 1 592 Kbps\nWidth : 480 pixels\nHeight : 360 pixels\nDisplay aspect ratio : 4/3\nFrame rate : 25.000 fps\nResolution : 24 bits\nColorimetry : 4:2:0\nScan type : Progressive\nBits/(Pixel*Frame) : 0.368\nStream size : 221 MiB (92%)\nWriting library : DivX 5.1.1 (Maupiti) (UTC 2003-11-19)\n\nAudio\nID : 1\nFormat : MPEG Audio\nFormat version : Version 1\nFormat profile : Layer 3\nCodec ID : 55\nCodec ID/Hint : MP3\nDuration : 19mn 26s\nBit rate mode : Constant\nBit rate : 128 Kbps\nChannel(s) : 2 channels\nSampling rate : 44.1 KHz\nResolution : 16 bits\nStream size : 17.8 MiB (7%)\nAlignment : Split accross interleaves\nInterleave, duration : 40 ms (1.00 video frame)\nInterleave, preload duration : 500 ms\n\nGood quality, first episode from first season has bad quality audio. All the others are very good.\n\n","torrent":{"xt":"urn:btih:c797adb36ed3cf8b0a938699c8162777f42e3687","amp;dn":"Spiderman.The.Animated.Series.Season.%281-5%29-WaRlOrD","amp;tr":["udp%3A%2F%2Ftracker.openbittorrent.com%3A80","udp%3A%2F%2Fopen.demonii.com%3A1337","udp%3A%2F%2Ftracker.coppersurfer.tk%3A6969","udp%3A%2F%2Fexodus.desync.com%3A6969"],"infoHash":"c797adb36ed3cf8b0a938699c8162777f42e3687","infoHashBuffer":{"type":"Buffer","data":[199,151,173,179,110,211,207,139,10,147,134,153,200,22,39,119,244,46,54,135]},"announce":[],"urlList":[]}}